<svg width="96" height="96" viewBox="0 0 96 96" fill="none" xmlns="http://www.w3.org/2000/svg">
<circle cx="48" cy="48" r="48" fill="#FCB72B"/>
<path fill-rule="evenodd" clip-rule="evenodd" d="M53.8005 24H33.0115C30.8047 24.0028 29.0165 25.791 29.0137 27.9979V67.9765C29.0165 70.1834 30.8047 71.9716 33.0115 71.9744H53.0009V70.544C52.9971 66.9421 54.0633 63.4194 56.0648 60.4246C56.2767 60.1071 56.2342 59.6848 55.9649 59.4155L50.3679 53.8185C49.8506 53.3006 49.5763 52.5884 49.6125 51.8573C49.6489 51.1259 49.9925 50.4447 50.5582 49.9805C51.6478 49.1476 53.1888 49.2665 54.1379 50.2562L62.0305 58.149L63.1611 57.0184L57.7983 51.6541V27.9979C57.7955 25.791 56.0073 24.0028 53.8005 24ZM56.1992 50.0549L55.2685 49.1242C53.7345 47.557 51.2674 47.3937 49.5403 48.7456C48.6268 49.4964 48.0725 50.5986 48.0147 51.7802C47.9572 52.9616 48.4009 54.1123 49.2373 54.9491L54.3785 60.0906C52.4612 63.1803 51.4329 66.7392 51.4073 70.3753H33.0115C31.687 70.3753 30.6128 69.301 30.6128 67.9765V65.5778H50.6022V63.9787H30.6128V30.3966H56.1992V50.0549ZM30.6128 28.7974H56.1992V27.9979C56.1992 26.6734 55.1249 25.5991 53.8005 25.5991H33.0115C31.687 25.5991 30.6128 26.6734 30.6128 27.9979V28.7974ZM60.1559 42.6005L59.0776 43.7791L63.9812 48.2743C65.1356 49.3363 65.7937 50.8327 65.7941 52.4009V71.9744H67.3932V52.4009C67.3912 50.3839 66.5453 48.4606 65.06 47.0955L60.1559 42.6005ZM33.8111 38.3923H37.0094C37.8927 38.3923 38.6086 37.6765 38.6086 36.7932V33.5949C38.6086 32.7116 37.8927 31.9957 37.0094 31.9957H33.8111C32.9278 31.9957 32.212 32.7116 32.212 33.5949V36.7932C32.212 37.6765 32.9278 38.3923 33.8111 38.3923ZM33.8111 33.5949H37.0094V36.7932H33.8111V33.5949ZM45.0051 38.3923H41.8068C40.9235 38.3923 40.2077 37.6765 40.2077 36.7932V33.5949C40.2077 32.7116 40.9235 31.9957 41.8068 31.9957H45.0051C45.8885 31.9957 46.6043 32.7116 46.6043 33.5949V36.7932C46.6043 37.6765 45.8885 38.3923 45.0051 38.3923ZM45.0051 33.5949H41.8068V36.7932H45.0051V33.5949ZM49.8026 38.3923H53.0009C53.8842 38.3923 54.6 37.6765 54.6 36.7932V33.5949C54.6 32.7116 53.8842 31.9957 53.0009 31.9957H49.8026C48.9193 31.9957 48.2034 32.7116 48.2034 33.5949V36.7932C48.2034 37.6765 48.9193 38.3923 49.8026 38.3923ZM49.8026 33.5949H53.0009V36.7932H49.8026V33.5949ZM37.0094 46.3881H33.8111C32.9278 46.3881 32.212 45.6722 32.212 44.7889V41.5906C32.212 40.7073 32.9278 39.9915 33.8111 39.9915H37.0094C37.8927 39.9915 38.6086 40.7073 38.6086 41.5906V44.7889C38.6086 45.6722 37.8927 46.3881 37.0094 46.3881ZM37.0094 41.5906H33.8111V44.7889H37.0094V41.5906ZM33.8111 54.3838H37.0094C37.8927 54.3838 38.6086 53.668 38.6086 52.7846V49.5864C38.6086 48.703 37.8927 47.9872 37.0094 47.9872H33.8111C32.9278 47.9872 32.212 48.703 32.212 49.5864V52.7846C32.212 53.668 32.9278 54.3838 33.8111 54.3838ZM33.8111 49.5864H37.0094V52.7846H33.8111V49.5864ZM45.0051 46.3881H41.8068C40.9235 46.3881 40.2077 45.6722 40.2077 44.7889V41.5906C40.2077 40.7073 40.9235 39.9915 41.8068 39.9915H45.0051C45.8885 39.9915 46.6043 40.7073 46.6043 41.5906V44.7889C46.6043 45.6722 45.8885 46.3881 45.0051 46.3881ZM45.0051 41.5906H41.8068V44.7889H45.0051V41.5906ZM49.8026 46.3881H53.0009C53.8842 46.3881 54.6 45.6722 54.6 44.7889V41.5906C54.6 40.7073 53.8842 39.9915 53.0009 39.9915H49.8026C48.9193 39.9915 48.2034 40.7073 48.2034 41.5906V44.7889C48.2034 45.6722 48.9193 46.3881 49.8026 46.3881ZM49.8026 41.5906H53.0009V44.7889H49.8026V41.5906ZM45.0051 54.3838H41.8068C40.9235 54.3838 40.2077 53.668 40.2077 52.7846V49.5864C40.2077 48.703 40.9235 47.9872 41.8068 47.9872H45.0051C45.8885 47.9872 46.6043 48.703 46.6043 49.5864V52.7846C46.6043 53.668 45.8885 54.3838 45.0051 54.3838ZM45.0051 49.5864H41.8068V52.7846H45.0051V49.5864ZM33.8111 62.3795H37.0094C37.8927 62.3795 38.6086 61.6637 38.6086 60.7804V57.5821C38.6086 56.6988 37.8927 55.9829 37.0094 55.9829H33.8111C32.9278 55.9829 32.212 56.6988 32.212 57.5821V60.7804C32.212 61.6637 32.9278 62.3795 33.8111 62.3795ZM33.8111 57.5821H37.0094V60.7804H33.8111V57.5821ZM45.0051 62.3795H41.8068C40.9235 62.3795 40.2077 61.6637 40.2077 60.7804V57.5821C40.2077 56.6988 40.9235 55.9829 41.8068 55.9829H45.0051C45.8885 55.9829 46.6043 56.6988 46.6043 57.5821V60.7804C46.6043 61.6637 45.8885 62.3795 45.0051 62.3795ZM45.0051 57.5821H41.8068V60.7804H45.0051V57.5821ZM44.2056 67.177H42.6064V68.7761H44.2056V67.177Z" fill="#495567"/>
</svg>
